<svg viewBox="0 0 24 24" xmlns="http://www.w3.org/2000/svg" fill="none" stroke="#fff" stroke-width="1.6"><circle cx="12" cy="12" r="3"/><path d="M19.4 15a1.7 1.7 0 0 0 .4 1.8 2 2 0 1 1-2.8 2.8 1.7 1.7 0 0 0-1.8-.4 1.7 1.7 0 0 0-1 1.5V21a2 2 0 1 1-4 0v-.1a1.7 1.7 0 0 0-1-1.5 1.7 1.7 0 0 0-1.8.4 2 2 0 1 1-2.8-2.8 1.7 1.7 0 0 0 .4-1.8 1.7 1.7 0 0 0-1.5-1H3a2 2 0 1 1 0-4h.1a1.7 1.7 0 0 0 1.5-1 1.7 1.7 0 0 0-.4-1.8A2 2 0 1 1 7 4.4a1.7 1.7 0 0 0 1.8.4H9a2 2 0 1 1 4 0h.2a1.7 1.7 0 0 0 1.8-.4A2 2 0 1 1 17 7a1.7 1.7 0 0 0-.4 1.8 1.7 1.7 0 0 0 1.5 1H21a2 2 0 1 1 0 4h-.1a1.7 1.7 0 0 0-1.5 1Z"/></svg>