<svg xmlns="http://www.w3.org/2000/svg" viewBox="0 0 24 24" fill="#fff"><path d="M19.14,12.94a7.43,7.43,0,0,0,.05-1l2-1.55a.5.5,0,0,0,.12-.65l-1.9-3.29a.5.5,0,0,0-.61-.22l-2.35,1a7.1,7.1,0,0,0-1.73-1L14.5,2.5a.5.5,0,0,0-.5-.5H10a.5.5,0,0,0-.5.5L9,5.22a7.1,7.1,0,0,0-1.73,1l-2.35-1a.5.5,0,0,0-.61.22L2.41,8.73a.5.5,0,0,0,.12.65l2,1.55a7.43,7.43,0,0,0,0,2l-2,1.55a.5.5,0,0,0-.12.65l1.9,3.29a.5.5,0,0,0,.61.22l2.35-1a7.1,7.1,0,0,0,1.73,1L9.5,21.5a.5.5,0,0,0,.5.5h4a.5.5,0,0,0,.5-.5l.5-2.72a7.1,7.1,0,0,0,1.73-1l2.35,1a.5.5,0,0,0,.61-.22l1.9-3.29a.5.5,0,0,0-.12-.65Z"/></svg>