<svg xmlns="http://www.w3.org/2000/svg" viewBox="0 0 24 24" fill="#fff"><path d="M20.52 3.48A11.9 11.9 0 0 0 12 0 12 12 0 0 0 2.32 18.5L0 24l5.76-2.26A12 12 0 0 0 12 24a12 12 0 0 0 8.48-20.52zM12 22a9.9 9.9 0 0 1-5.05-1.39l-.36-.21-3.41 1.34.91-3.62-.23-.37A10 10 0 1 1 22 12a9.86 9.86 0 0 1-10 10zm5.06-7.1c-.27-.14-1.6-.79-1.84-.88s-.43-.14-.6.14-.69.88-.85 1.06-.31.2-.58.07a8 8 0 0 1-2.35-1.45 8.8 8.8 0 0 1-1.63-2 1.8 1.8 0 0 1 .05-1.06c.06-.13.14-.2.27-.34s.18-.2.25-.34a.34.34 0 0 0 0-.33c0-.43-.07-.63-.28-.96s-.6-.92-.84-.92-.46.12-.66.12-.35 0-.53-.01a1 1 0 0 0-.77.35 3.18 3.18 0 0 0-1 2.35A5.47 5.47 0 0 0 9 14a12.5 12.5 0 0 0 4.62 3.51c.64.28 1.14.45 1.53.58.64.2 1.23.17 1.7.1.52-.08 1.6-.65 1.83-1.28s.23-1.17.16-1.28-.25-.19-.52-.33z"/></svg>