<svg xmlns="http://www.w3.org/2000/svg" viewBox="0 0 24 24"><path fill="currentColor" d="M20.5 3.5A11.9 11.9 0 0012 1C6.5 1 2 5.5 2 11c0 1.9.5 3.7 1.5 5.3L2 23l6.9-1.4A10.9 10.9 0 0012 21c5.5 0 10-4.5 10-10 0-2.6-1-5.1-2.5-7.5zm-8.5 16c-1.6 0-3.1-.4-4.4-1.3l-.3-.2-4 .8.8-3.9-.2-.3C3 13.3 2.7 12.2 2.7 11 2.7 6.9 6 3.6 10.1 3.6s7.4 3.3 7.4 7.4-3.3 7.5-7.5 7.5zm4.2-5.6c-.2-.1-1.2-.6-1.3-.7-.2-.1-.3-.1-.4.1-.1.2-.5.7-.6.8-.1.1-.2.1-.4 0s-.8-.3-1.5-.9c-.6-.5-1-1.2-1.1-1.3-.1-.1 0-.2.1-.3.1-.1.2-.2.3-.4.1-.1.1-.2.2-.3.1-.1.1-.2 0-.3 0-.1-.4-1.1-.6-1.6-.2-.5-.3-.4-.4-.4h-.3c-.1 0-.3 0-.4.2-.1.2-.5.4-.5 1s.5 1.1.6 1.2c.1.2 1.2 2 2.8 2.8 1.6.9 1.6.6 1.9.6.2 0 .9-.4 1-.7.1-.3.1-.6.1-.7 0-.1 0-.1-.1-.2z"/></svg>