<svg xmlns="http://www.w3.org/2000/svg" viewBox="0 0 24 24"><path fill="#fff" d="M20.5 3.5A11.9 11.9 0 0 0 12 0a12 12 0 0 0-9.7 19.4L0 24l4.8-1.9A12 12 0 1 0 20.5 3.5zM12 22a9.9 9.9 0 0 1-5-1.4l-.4-.2-3.4 1.3.9-3.6-.2-.4A10 10 0 1 1 22 12 9.9 9.9 0 0 1 12 22zm5.1-7.1-.7-.3c-.2-.1-1.5-.8-1.7-.8s-.4-.1-.6.1-.7.9-.9 1.1-.3.2-.6.1a8 8 0 0 1-2.3-1.5 8.8 8.8 0 0 1-1.6-2 1.8 1.8 0 0 1 .1-1.1c.1-.1.2-.2.3-.3l.2-.3a.3.3 0 0 0 0-.3c0-.1-.6-1.6-.8-2.1s-.4-.5-.6-.5h-.5a1 1 0 0 0-.7.3 3 3 0 0 0-1 2.2 5.2 5.2 0 0 0 .6 2.4 10.3 10.3 0 0 0 3.8 4.1 10.9 10.9 0 0 0 2.6 1 .9.9 0 0 0 .9-.3l1-1.3c.1-.2.2-.3.2-.5s-.1-.3-.3-.4z"/></svg>