<svg viewBox="0 0 24 24" fill="#fff"><path d="M20 3.5A9.9 9.9 0 004.1 19.4L3 22l2.7-1A9.9 9.9 0 1019.9 3.5zM12.1 18a7.3 7.3 0 01-3.7-1l-.3-.2-2.2.6.6-2.1-.2-.3A7.3 7.3 0 1112.1 18zm4.1-5.3c-.2-.1-1.3-.7-1.5-.8-.2-.1-.4-.1-.6.1-.2.2-.7.8-.8 1-.1.2-.3.2-.5.1-.2-.1-.9-.3-1.7-1.1-.6-.5-1.1-1.1-1.2-1.3-.1-.2 0-.3.1-.5l.3-.4c.1-.1.1-.2.2-.3.1-.1.1-.2 0-.3 0-.1-.6-1.5-.8-2-.2-.5-.4-.5-.6-.5h-.5c-.2 0-.3.1-.5.2-.2.2-.7.7-.7 1.8 0 1.1.8 2.1.9 2.2.1.2 1.7 2.6 4.1 3.6.6.3 1.1.5 1.5.6.6.2 1.1.2 1.5.1.5-.1 1.3-.5 1.5-1 .2-.5.2-.9.2-1 0-.1-.2-.2-.4-.3z"/></svg>